Coordinates
version=1
nRows=14
nColumns=36
inDegrees=yes

Units are S.I. units (second, meters, Newtons, ...)
If the header above contains a line with 'inDegrees', this indicates whether rotational values are in degrees (yes) or radians (no).

endheader
time	pelvis_tilt	pelvis_list	pelvis_rotation	pelvis_tx	pelvis_ty	pelvis_tz	hip_flexion_r	hip_adduction_r	hip_rotation_r	knee_angle_r	knee_angle_r_beta	ankle_angle_r	subtalar_angle_r	mtp_angle_r	hip_flexion_l	hip_adduction_l	hip_rotation_l	knee_angle_l	knee_angle_l_beta	ankle_angle_l	subtalar_angle_l	mtp_angle_l	lumbar_extension	lumbar_bending	lumbar_rotation	arm_flex_r	arm_add_r	arm_rot_r	elbow_flex_r	pro_sup_r	arm_flex_l	arm_add_l	arm_rot_l	elbow_flex_l	pro_sup_l
      0.27000000	      0.58971967	     -1.76090515	      2.35853789	      0.36274007	      1.13550604	     -0.18169641	      4.29729319	      8.45114900	     -0.76520898	      9.34092746	      0.16302994	      5.54015585	    -11.59315107	     -7.49999643	     23.53143015	     -2.19661224	      0.97042992	     61.14957677	      1.06726145	     -5.41136069	    -20.19199066	     -7.49999643	     -7.73007327	      6.98924301	     -1.18936877	     -6.83749944	     -6.78032681	    -13.89071729	     33.97062548	     92.87382678	     -6.85631569	     -3.29212993	    -11.34986686	     33.34404090	     99.21426125
      0.28000000	      0.55237382	     -1.59473110	      2.17438859	      0.37094520	      1.13682746	     -0.18155286	      3.64603001	      8.28466637	     -0.31721854	      8.86412912	      0.15470824	      5.22038306	    -11.41329815	     -7.49999646	     24.70033226	     -2.19391888	      0.69773345	     59.49461673	      1.03837695	     -5.36718146	    -19.90138463	     -7.49999646	     -7.80785049	      6.77560916	     -1.00464250	     -6.58562902	     -6.85886592	    -13.83164970	     34.18240325	     92.89111688	     -6.94074987	     -3.28875136	    -11.34748605	     33.51510061	     99.19913039
      0.29000000	      0.49879715	     -1.48610884	      1.98713812	      0.37899329	      1.13812471	     -0.18200649	      3.07184764	      8.15173628	      0.09960403	      8.43136120	      0.14715501	      4.72494039	    -11.28157177	     -7.49999650	     25.68310107	     -2.20957547	      0.30976760	     57.57873500	      1.00493850	     -5.21059488	    -19.47060776	     -7.49999650	     -7.88146997	      6.63398224	     -0.83338955	     -6.32446657	     -6.97523069	    -13.74353177	     34.46255031	     92.90558802	     -7.00198107	     -3.25445911	    -11.34716427	     33.72048430	     99.17781926
      0.30000000	      0.64082039	     -1.41294540	      1.78535500	      0.38695515	      1.13948976	     -0.18287243	      2.29238993	      8.06204065	      0.68203748	      7.97155812	      0.13912994	      3.94852406	    -11.55619375	     -7.49999659	     26.20187810	     -2.22806366	     -0.23139153	     55.42866864	      0.96741277	     -4.62756878	    -18.63939855	     -7.49999659	     -8.26998700	      6.55219630	     -0.61682077	     -6.01729817	     -7.19957419	    -13.47304552	     34.88568153	     93.11852659	     -6.99973511	     -3.16337041	    -11.39117578	     34.07297727	     99.32741050
      0.31000000	      0.43821599	     -1.41151066	      1.64747867	      0.39530097	      1.13992999	     -0.18417940	      1.91835268	      8.00229805	      0.87799339	      7.59837893	      0.13261673	      3.30154610	    -11.27578296	     -7.49999662	     26.88162057	     -2.17721575	     -0.73993019	     53.12864578	      0.92726980	     -4.27238103	    -18.25499403	     -7.49999662	     -8.07917281	      6.59476736	     -0.56423672	     -5.78894024	     -7.41270354	    -13.44865507	     35.22533108	     93.10619234	     -7.10340433	     -3.01767066	    -11.37701093	     34.19890214	     99.31120100
      0.32000000	      0.34871703	     -1.34012228	      1.48914546	      0.40381545	      1.13999351	     -0.18526451	      1.38320032	      7.90289531	      1.11964284	      7.23009791	      0.12618901	      2.59792986	    -11.07955941	     -7.49999665	     27.19352110	     -2.04815459	     -1.42788269	     50.66183879	      0.88421589	     -3.61379044	    -17.53858589	     -7.49999665	     -8.06405544	      6.56406549	     -0.46507871	     -5.56922356	     -7.59690726	    -13.34661326	     35.70043700	     93.11998418	     -7.15184421	     -2.91926206	    -11.39239594	     34.38226732	     99.31290849
      0.33000000	      0.58906262	     -1.27788726	      1.33191073	      0.41234713	      1.13975678	     -0.18602347	      0.40971079	      7.86699765	      1.44295794	      6.82465522	      0.11911270	      1.87422889	    -10.99225414	     -7.49999672	     26.99086677	     -1.94897087	     -2.23103672	     48.15759104	      0.84050852	     -2.51663264	    -16.36827771	     -7.49999672	     -8.53203857	      6.55485526	     -0.28241417	     -5.31147357	     -7.87523031	    -13.12725069	     36.46238653	     93.23336384	     -7.09762518	     -2.77911478	    -11.45901135	     34.76571275	     99.41995417
      0.34000000	      0.63745496	     -1.20533435	      1.25829321	      0.42103846	      1.13851208	     -0.18669020	     -0.40985430	      7.83765016	      1.51151130	      6.46398378	      0.11281780	      1.22903123	    -10.43619105	     -7.49999689	     26.94106750	     -1.75522926	     -2.95749027	     45.66387737	      0.79698501	     -1.80544517	    -15.72534200	     -7.49999689	     -8.76711683	      6.53503931	     -0.22350054	     -5.15948507	     -8.17961342	    -12.77788086	     37.24670058	     92.58034485	     -7.16362872	     -2.67044960	    -11.36739997	     35.35127877	     98.86810504
      0.35000000	      0.60960757	     -1.14559684	      1.16430904	      0.42974446	      1.13651262	     -0.18678111	     -1.17984989	      7.88736173	      1.70540125	      6.20529685	      0.10830286	      0.66948891	     -9.90037349	     -7.49999698	     26.95203308	     -1.60319090	     -3.68130270	     43.22692482	      0.75445216	     -1.18302646	    -15.15920513	     -7.49999698	     -8.79093398	      6.52639811	     -0.24974134	     -4.94949494	     -8.38001090	    -12.65690403	     37.87580201	     92.16984416	     -7.24352645	     -2.57456655	    -11.36490593	     35.56187642	     98.51498098
      0.36000000	      0.52012652	     -1.05692122	      1.11634344	      0.43816588	      1.13404496	     -0.18662566	     -1.92137863	      7.93902875	      1.74894798	      5.98388232	      0.10443845	      0.22564786	     -9.10726982	     -7.49999710	     27.09184388	     -1.40015907	     -4.30323210	     40.88443713	      0.71356804	     -0.68926083	    -14.75716966	     -7.49999710	     -8.82241980	      6.46205455	     -0.28238305	     -4.77081840	     -8.54655496	    -12.59259129	     38.61613879	     92.16626229	     -7.32224622	     -2.48790030	    -11.45060169	     35.96077032	     98.66673437
      0.37000000	      0.38791325	     -0.98416216	      1.05022194	      0.44632955	      1.13151796	     -0.18610523	     -2.64028435	      8.03821443	      1.91951088	      5.77560356	      0.10080330	     -0.13638267	     -8.40400464	     -7.49999720	     27.34395606	     -1.24795174	     -4.87225993	     38.63326974	      0.67427776	     -0.12185194	    -14.24592351	     -7.49999720	     -8.83428615	      6.40931427	     -0.29445087	     -4.59419221	     -8.74721806	    -12.52866094	     39.34328796	     92.25352270	     -7.37996022	     -2.46296017	    -11.54719764	     36.30021228	     98.88723456
      0.38000000	      0.19460722	     -0.92161058	      0.98791972	      0.45413283	      1.12927465	     -0.18536340	     -3.25992593	      8.14231470	      2.01771707	      5.60254721	      0.09778290	     -0.19867873	     -7.64394238	     -7.49999725	     27.72497989	     -1.12464494	     -5.36949739	     36.43843949	      0.63597074	      0.49510562	    -13.68674675	     -7.49999725	     -8.79125265	      6.34402639	     -0.29009501	     -4.43571647	     -8.84240834	    -12.44807603	     40.08252441	     92.18903419	     -7.41693832	     -2.39468481	    -11.61065028	     36.65400269	     98.95413573
      0.39000000	     -0.09498258	     -0.87622294	      0.94715520	      0.46161149	      1.12755583	     -0.18453046	     -3.70039619	      8.23209177	      2.02379038	      5.44868919	      0.09509757	      0.10279838	     -6.98383790	     -7.49999744	     28.27227561	     -0.98550113	     -5.66745882	     34.29815315	      0.59861570	      1.07247630	    -13.16026721	     -7.49999744	     -8.68124680	      6.27397949	     -0.30876251	     -4.25835662	     -8.92014125	    -12.49007261	     40.76966837	     92.67375152	     -7.43111637	     -2.34867699	    -11.79131563	     36.93109380	     99.53744701
      0.40000000	     -0.40309338	     -0.86252028	      0.83262332	      0.46891295	      1.12661400	     -0.18345881	     -4.03759121	      8.30506267	      2.09267330	      5.27216689	      0.09201667	      0.86815653	     -6.58543470	     -7.49999759	     28.83894325	     -0.92513856	     -5.95572957	     32.17312582	      0.56152698	      1.79751536	    -12.32290911	     -7.49999759	     -8.61051392	      6.22670829	     -0.22869689	     -4.07241900	     -9.01063740	    -12.41826162	     41.45638509	     92.81962972	     -7.38166560	     -2.34491502	    -11.76008898	     37.16801653	     99.68089102
